<svg width="17" height="16" viewBox="0 0 17 16" fill="none" xmlns="http://www.w3.org/2000/svg">
<path d="M15.7193 0.390396C15.9068 0.640442 16.0121 0.979531 16.0121 1.3331C16.0121 1.68666 15.9068 2.02575 15.7193 2.2758L5.71929 15.6096C5.53176 15.8596 5.27745 16 5.01229 16C4.74712 16 4.49282 15.8596 4.30529 15.6096L0.305288 10.2761C0.209778 10.1531 0.133596 10.0059 0.0811869 9.84327C0.0287779 9.68059 0.00119157 9.50563 3.77571e-05 9.32858C-0.00111606 9.15154 0.0241854 8.97596 0.0744663 8.81209C0.124747 8.64822 0.199 8.49935 0.292893 8.37415C0.386786 8.24896 0.498438 8.14995 0.621334 8.08291C0.74423 8.01586 0.87591 7.98213 1.00869 7.98366C1.14147 7.9852 1.27269 8.02199 1.39469 8.09187C1.5167 8.16175 1.62704 8.26333 1.71929 8.39068L5.01229 12.7815L14.3053 0.390396C14.4928 0.140426 14.7471 0 15.0123 0C15.2775 0 15.5318 0.140426 15.7193 0.390396Z" fill="#F68C8B"/>
</svg>
