<svg width="21" height="21" viewBox="0 0 21 21" fill="none" xmlns="http://www.w3.org/2000/svg">
<path d="M10.106 0.962891C10.4375 0.962891 10.7554 1.09459 10.9898 1.32901C11.2243 1.56343 11.356 1.88137 11.356 2.21289V9.71289H18.856C19.1875 9.71289 19.5054 9.84459 19.7398 10.079C19.9743 10.3134 20.106 10.6314 20.106 10.9629C20.106 11.2944 19.9743 11.6124 19.7398 11.8468C19.5054 12.0812 19.1875 12.2129 18.856 12.2129H11.356V19.7129C11.356 20.0444 11.2243 20.3624 10.9898 20.5968C10.7554 20.8312 10.4375 20.9629 10.106 20.9629C9.77444 20.9629 9.45649 20.8312 9.22207 20.5968C8.98765 20.3624 8.85596 20.0444 8.85596 19.7129V12.2129H1.35596C1.02444 12.2129 0.706494 12.0812 0.472074 11.8468C0.237653 11.6124 0.105957 11.2944 0.105957 10.9629C0.105957 10.6314 0.237653 10.3134 0.472074 10.079C0.706494 9.84459 1.02444 9.71289 1.35596 9.71289H8.85596V2.21289C8.85596 1.88137 8.98765 1.56343 9.22207 1.32901C9.45649 1.09459 9.77444 0.962891 10.106 0.962891Z" fill="#F68C8B"/>
</svg>
