<svg width="32" height="32" viewBox="0 0 32 32" fill="none" xmlns="http://www.w3.org/2000/svg">
<path d="M19.4826 9.0019C19.697 9.21641 19.8175 9.50731 19.8175 9.81063C19.8175 10.1139 19.697 10.4048 19.4826 10.6193L13.428 16.6739L19.4826 22.7284C19.691 22.9442 19.8063 23.2331 19.8036 23.5331C19.801 23.833 19.6807 24.1199 19.4687 24.332C19.2566 24.544 18.9697 24.6643 18.6697 24.6669C18.3698 24.6696 18.0809 24.5543 17.8651 24.3459L11.0019 17.4826C10.7874 17.2681 10.667 16.9772 10.667 16.6739C10.667 16.3706 10.7874 16.0797 11.0019 15.8652L17.8651 9.0019C18.0797 8.78746 18.3706 8.66699 18.6739 8.66699C18.9772 8.66699 19.2681 8.78746 19.4826 9.0019Z" fill="white"/>
</svg>
