<svg width="44" height="44" viewBox="0 0 44 44" fill="none" xmlns="http://www.w3.org/2000/svg">
<path fill-rule="evenodd" clip-rule="evenodd" d="M21.0222 15.1558C20.7629 15.1558 20.5141 15.2588 20.3308 15.4421C20.1474 15.6255 20.0444 15.8742 20.0444 16.1335H23.9555C23.9555 15.8742 23.8525 15.6255 23.6691 15.4421C23.4858 15.2588 23.2371 15.1558 22.9777 15.1558H21.0222ZM21.0222 13.2002C20.2442 13.2002 19.4981 13.5092 18.948 14.0593C18.3979 14.6095 18.0888 15.3556 18.0888 16.1335H14.1777C13.9184 16.1335 13.6697 16.2365 13.4863 16.4199C13.303 16.6033 13.2 16.852 13.2 17.1113C13.2 17.3706 13.303 17.6193 13.4863 17.8027C13.6697 17.9861 13.9184 18.0891 14.1777 18.0891H15.1555V27.8669C15.1555 28.6448 15.4646 29.3909 16.0147 29.941C16.5648 30.4911 17.3109 30.8002 18.0888 30.8002H25.9111C26.689 30.8002 27.4351 30.4911 27.9852 29.941C28.5353 29.3909 28.8444 28.6448 28.8444 27.8669V18.0891H29.8222C30.0815 18.0891 30.3302 17.9861 30.5136 17.8027C30.6969 17.6193 30.7999 17.3706 30.7999 17.1113C30.7999 16.852 30.6969 16.6033 30.5136 16.4199C30.3302 16.2365 30.0815 16.1335 29.8222 16.1335H25.9111C25.9111 15.3556 25.602 14.6095 25.0519 14.0593C24.5018 13.5092 23.7557 13.2002 22.9777 13.2002H21.0222ZM21.0222 21.0224C21.0222 20.7631 20.9192 20.5144 20.7358 20.331C20.5524 20.1477 20.3037 20.0446 20.0444 20.0446C19.7851 20.0446 19.5364 20.1477 19.353 20.331C19.1696 20.5144 19.0666 20.7631 19.0666 21.0224V25.9113C19.0666 26.1706 19.1696 26.4193 19.353 26.6027C19.5364 26.7861 19.7851 26.8891 20.0444 26.8891C20.3037 26.8891 20.5524 26.7861 20.7358 26.6027C20.9192 26.4193 21.0222 26.1706 21.0222 25.9113V21.0224ZM24.9333 21.0224C24.9333 20.7631 24.8303 20.5144 24.6469 20.331C24.4635 20.1477 24.2148 20.0446 23.9555 20.0446C23.6962 20.0446 23.4475 20.1477 23.2641 20.331C23.0807 20.5144 22.9777 20.7631 22.9777 21.0224V25.9113C22.9777 26.1706 23.0807 26.4193 23.2641 26.6027C23.4475 26.7861 23.6962 26.8891 23.9555 26.8891C24.2148 26.8891 24.4635 26.7861 24.6469 26.6027C24.8303 26.4193 24.9333 26.1706 24.9333 25.9113V21.0224Z" fill="#F68C8B"/>
</svg>
